<svg xmlns="http://www.w3.org/2000/svg" xmlns:xlink="http://www.w3.org/1999/xlink" width="15.989" height="16" viewBox="0 0 15.989 16">
  <defs>
    <clipPath id="clip-path">
      <rect id="Rectángulo_817" data-name="Rectángulo 817" width="15.989" height="16" fill="#707070"/>
    </clipPath>
  </defs>
  <g id="Grupo_5260" data-name="Grupo 5260" transform="translate(0 0)">
    <g id="Grupo_856" data-name="Grupo 856" transform="translate(0 0)" clip-path="url(#clip-path)">
      <path id="Trazado_3243" data-name="Trazado 3243" d="M.833,15.727a.8.8,0,0,1-.742-1.171c.457-.935.922-1.866,1.384-2.8.26-.525.522-1.049.78-1.575a1.528,1.528,0,0,1,.293-.408q3.252-3.247,6.5-6.5c.105-.105.155-.121.268,0q1.554,1.589,3.12,3.166c.1.1.105.143,0,.246Q9.168,9.94,5.908,13.2a1.42,1.42,0,0,1-.377.272Q3.386,14.537,1.243,15.6a.825.825,0,0,1-.41.126" transform="translate(0 0.27)" fill="#707070"/>
      <path id="Trazado_3244" data-name="Trazado 3244" d="M12.882,0a2.306,2.306,0,0,1,2.082,1.466,2.282,2.282,0,0,1-.467,2.6c-.482.523-1,1.009-1.5,1.517-.08.08-.116.061-.185-.009Q11.208,3.97,9.6,2.37C9.53,2.3,9.519,2.262,9.6,2.184c.5-.495.979-1,1.477-1.491A2.437,2.437,0,0,1,12.882,0" transform="translate(0.807 0)" fill="#707070"/>
      <path id="Trazado_3245" data-name="Trazado 3245" d="M11.033,14.874c-1.193,0-2.386,0-3.58,0a.791.791,0,0,1-.769-1.08.749.749,0,0,1,.717-.509c.356-.009.713,0,1.068,0q3.046,0,6.091,0a.791.791,0,0,1,.868.817.777.777,0,0,1-.759.772c-.443.011-.887,0-1.331,0h-2.3" transform="translate(0.56 1.123)" fill="#707070"/>
    </g>
  </g>
</svg>
